<?xml version="1.0" standalone="no"?>
<!DOCTYPE svg PUBLIC "-//W3C//DTD SVG 20010904//EN"
 "http://www.w3.org/TR/2001/REC-SVG-20010904/DTD/svg10.dtd">
<svg version="1.0" xmlns="http://www.w3.org/2000/svg"
 width="215.000000pt" height="215.000000pt" viewBox="0 0 215.000000 215.000000"
 preserveAspectRatio="xMidYMid meet">
<metadata>
Created by potrace 1.16, written by Peter Selinger 2001-2019
</metadata>
<g transform="translate(0.000000,215.000000) scale(0.100000,-0.100000)"
fill="#000000" stroke="none">
<path d="M983 2009 c-22 -8 -23 -14 -25 -126 l-2 -118 -3 108 c-3 99 -5 107
-23 107 -11 0 -20 -5 -20 -11 0 -5 -4 -8 -8 -5 -5 3 -12 -65 -15 -152 -3 -98
-14 -196 -27 -260 -28 -142 -85 -290 -120 -319 -8 -7 -11 -13 -7 -13 11 0 -72
-120 -83 -120 -6 0 -10 -6 -10 -13 0 -19 -75 -89 -85 -80 -4 5 -5 3 -2 -3 8
-13 -17 -37 -40 -40 -9 -2 -21 -8 -27 -15 -8 -9 -7 -10 4 -5 8 4 -3 -9 -25
-28 -22 -20 -43 -36 -47 -36 -5 0 -17 -9 -28 -20 -12 -12 -26 -18 -32 -14 -6
4 -9 3 -6 -2 3 -5 -6 -18 -20 -28 -15 -12 -22 -14 -17 -5 4 8 -19 -15 -51 -50
-32 -35 -64 -73 -71 -85 -26 -44 -10 -113 43 -182 52 -68 128 -84 182 -39 17
14 32 25 35 25 10 0 55 48 50 53 -2 3 7 14 21 25 15 11 26 24 26 30 0 5 7 13
16 16 8 3 13 10 10 15 -3 5 5 20 18 34 13 14 21 28 18 31 -3 3 0 6 6 6 7 0 11
3 10 7 -3 16 25 62 35 56 6 -3 7 -1 3 5 -8 14 20 72 35 72 6 0 7 4 4 10 -3 6
-1 10 5 10 6 0 8 5 5 10 -3 6 -1 10 5 10 6 0 9 4 5 9 -3 5 1 16 9 24 8 8 12
17 9 21 -4 3 -1 6 6 6 7 0 9 4 6 10 -3 5 -1 10 5 10 6 0 8 4 5 10 -3 5 -1 10
5 10 6 0 8 4 5 10 -3 6 -1 10 5 10 6 0 8 5 5 10 -3 6 -1 10 5 10 6 0 9 4 5 9
-3 5 -1 12 5 16 6 4 8 10 5 15 -3 5 -1 11 5 15 6 4 8 11 5 16 -4 5 -1 9 6 9 7
0 10 2 7 6 -3 3 7 47 23 99 15 52 33 123 40 157 7 34 14 57 17 50 4 -13 -5
-61 -51 -252 -53 -217 -133 -395 -305 -670 -59 -93 -66 -111 -66 -157 -1 -41
4 -57 23 -77 58 -61 162 -84 211 -46 14 11 31 20 38 20 7 0 16 8 19 18 4 9 19
32 34 51 16 19 26 38 23 42 -2 4 0 10 5 13 5 4 21 43 36 89 15 45 29 89 32 97
11 28 14 44 43 219 26 162 37 311 49 671 6 162 13 361 17 441 3 81 2 149 -3
152 -4 2 -18 1 -30 -4z"/>
<path d="M1036 1918 c-3 -57 -10 -326 -16 -598 -5 -272 -14 -509 -19 -525 -6
-17 -17 -79 -26 -140 -14 -103 -38 -243 -49 -291 -13 -61 -16 -127 -6 -163 6
-23 14 -41 18 -41 4 0 20 -11 35 -25 28 -26 109 -44 141 -32 9 4 18 5 20 4 1
-1 10 4 19 12 10 7 17 10 17 6 0 -4 9 4 21 19 11 14 26 23 32 19 7 -3 9 -3 5
2 -4 4 -2 15 5 23 10 13 9 14 -3 7 -13 -8 -13 -7 -1 8 10 13 12 35 7 89 -3 39
-11 77 -16 83 -5 7 -8 14 -5 17 3 3 -4 50 -15 104 -22 113 -37 199 -50 294 -7
53 -22 570 -33 1120 l-2 105 -37 3 -36 3 -6 -103z"/>
<path d="M1134 1923 c3 -54 8 -190 11 -303 17 -620 41 -860 111 -1130 27 -103
57 -173 86 -202 10 -10 16 -22 14 -27 -3 -4 8 -21 24 -36 17 -16 30 -25 30
-21 0 5 11 1 25 -8 76 -50 235 29 235 117 0 18 -11 56 -25 85 -13 29 -24 55
-24 59 0 3 -3 9 -8 12 -4 3 -15 15 -23 25 -13 18 -13 19 0 12 8 -4 6 0 -4 8
-11 9 -16 16 -11 16 5 0 -1 9 -13 21 -12 11 -19 25 -16 31 4 6 3 8 -3 5 -13
-8 -142 245 -186 363 -19 52 -45 133 -57 180 -12 47 -24 92 -27 100 -3 8 -7
33 -9 55 -2 24 14 -16 40 -98 26 -83 68 -186 105 -257 33 -64 58 -120 54 -124
-3 -3 -1 -6 6 -6 7 0 9 -5 6 -10 -3 -6 -1 -10 4 -10 6 0 11 -7 11 -15 0 -8 5
-15 11 -15 5 0 7 -4 4 -10 -3 -5 -1 -10 5 -10 6 0 9 -4 6 -9 -4 -5 -2 -11 2
-13 13 -5 74 -98 65 -98 -4 0 0 -5 10 -11 9 -5 17 -14 17 -20 0 -5 16 -23 35
-40 19 -17 33 -35 30 -39 -3 -4 2 -13 10 -20 8 -7 15 -10 15 -7 0 4 16 -5 36
-18 42 -29 82 -32 124 -10 17 9 33 15 37 15 5 0 8 5 8 10 0 6 7 15 15 20 8 5
11 10 5 10 -5 0 -1 7 9 15 11 8 17 15 13 15 -4 0 -1 13 8 30 17 33 20 116 5
125 -6 4 -8 10 -6 14 6 10 -79 94 -98 97 -17 2 -156 106 -156 116 0 5 -6 8
-14 8 -17 0 -171 149 -206 199 -13 19 -17 31 -9 26 7 -4 -3 9 -24 29 -21 21
-36 40 -33 43 6 6 -43 94 -57 104 -5 3 -8 8 -7 10 4 10 -13 59 -21 59 -5 0 -6
6 -3 14 3 7 -2 30 -10 51 -17 39 -21 74 -8 61 4 -4 7 -11 8 -14 2 -28 17 -72
25 -72 5 0 9 -9 9 -20 0 -11 7 -23 15 -26 8 -4 12 -10 9 -15 -3 -5 0 -9 6 -9
6 0 8 -4 5 -10 -3 -5 -2 -10 3 -10 6 0 13 -7 16 -16 3 -9 2 -12 -5 -8 -6 3 -5
-3 2 -14 7 -12 17 -19 21 -16 4 3 5 -3 1 -12 -5 -13 -3 -15 7 -9 10 6 12 4 7
-8 -4 -10 -2 -16 6 -14 7 1 11 -6 11 -15 -1 -10 2 -16 6 -13 4 3 19 -13 34
-35 38 -57 151 -175 218 -226 77 -60 137 -84 207 -84 51 0 60 3 89 33 30 31
32 37 32 109 0 42 -5 80 -10 83 -6 4 -8 10 -5 15 3 4 -2 11 -11 14 -8 3 -12
10 -9 16 3 5 1 10 -5 10 -6 0 -8 5 -4 12 4 6 3 8 -4 4 -6 -3 -19 5 -30 19 -11
14 -25 25 -30 25 -6 0 -15 6 -19 13 -10 16 -56 42 -237 133 -237 120 -295 193
-316 398 -5 51 -8 102 -5 114 2 12 -4 26 -13 34 -15 11 -16 11 -7 -2 6 -9 2
-7 -7 3 -11 12 -25 17 -34 13 -15 -6 -16 -23 -11 -159 4 -83 11 -169 16 -189
5 -21 6 -38 2 -38 -12 0 -31 152 -38 295 -5 102 -10 133 -22 142 -34 26 -40
16 -44 -79 l-3 -93 -2 97 -2 97 -31 16 -31 16 6 -98z"/>
<path d="M373 1916 c-29 -7 -53 -11 -53 -8 0 3 -14 -12 -30 -33 -23 -29 -27
-41 -19 -51 6 -8 15 -12 19 -9 10 6 42 -30 33 -38 -3 -4 -2 -7 3 -7 22 0 2
-120 -41 -246 -49 -141 -55 -190 -27 -224 l17 -22 33 32 c18 17 90 58 159 91
142 67 197 107 241 176 57 89 83 262 45 295 -47 40 -287 68 -380 44z"/>
<path d="M828 1905 c-21 -21 -26 -38 -31 -102 -6 -74 -9 -92 -23 -145 -3 -13
-6 -29 -6 -35 -1 -7 -6 -13 -11 -13 -6 0 -8 -3 -4 -6 17 -18 -61 -118 -128
-164 -49 -34 -286 -155 -297 -152 -5 1 -8 -3 -8 -9 0 -5 -5 -7 -10 -4 -6 3
-10 2 -10 -2 0 -9 -87 -75 -93 -71 -5 5 -53 -47 -50 -54 2 -4 -5 -11 -14 -17
-10 -6 -14 -11 -10 -11 5 0 1 -10 -7 -22 -11 -15 -16 -45 -16 -93 0 -67 2 -73
33 -103 30 -29 39 -32 93 -32 90 0 163 40 285 157 54 53 108 110 120 129 11
19 25 32 30 28 5 -3 9 -2 8 3 -4 22 2 34 14 27 6 -4 9 -4 5 1 -9 9 31 85 44
85 5 0 7 4 4 9 -3 5 3 19 13 32 31 41 80 164 96 241 18 95 25 348 9 348 -6 0
-22 -11 -36 -25z"/>
<path d="M1595 1924 c-57 -8 -140 -25 -160 -34 -11 -4 -28 -11 -37 -14 -14 -4
-18 -17 -18 -54 0 -94 23 -171 84 -281 14 -26 124 -97 211 -137 152 -68 167
-77 177 -100 13 -28 21 -30 44 -7 26 27 14 120 -32 233 -33 82 -38 106 -38
177 -1 73 2 85 23 107 13 14 28 23 33 19 6 -3 4 5 -3 18 -7 13 -13 27 -14 32
0 4 -2 7 -5 6 -3 0 -21 7 -41 15 -38 16 -170 27 -224 20z"/>
</g>
</svg>
